<svg width="16" height="16" viewBox="0 0 16 16" fill="none" xmlns="http://www.w3.org/2000/svg">
<g id="noun-arrow-1807388 1">
<g id="Group">
<path id="Vector" d="M7.93216 10.903C7.78508 10.8876 7.64629 10.8274 7.53464 10.7305L2.49464 6.41045C2.4106 6.35366 2.33951 6.27976 2.28602 6.19359C2.23253 6.10741 2.19785 6.01091 2.18424 5.9104C2.17064 5.80989 2.17842 5.70764 2.20708 5.61034C2.23574 5.51305 2.28464 5.42291 2.35056 5.34582C2.41648 5.26874 2.49794 5.20645 2.58961 5.16304C2.68128 5.11963 2.78107 5.09607 2.88247 5.09391C2.98388 5.09175 3.0846 5.11104 3.17804 5.15052C3.27147 5.18999 3.3555 5.24875 3.42464 5.32296L7.99964 9.24546L12.5746 5.32296C12.6438 5.24875 12.7278 5.18999 12.8213 5.15052C12.9147 5.11104 13.0154 5.09175 13.1168 5.09391C13.2182 5.09607 13.318 5.11963 13.4097 5.16304C13.5014 5.20645 13.5828 5.26874 13.6487 5.34582C13.7146 5.42291 13.7636 5.51305 13.7922 5.61034C13.8209 5.70764 13.8286 5.80989 13.815 5.9104C13.8014 6.01091 13.7668 6.10741 13.7133 6.19359C13.6598 6.27976 13.5887 6.35366 13.5046 6.41045L8.46464 10.7305C8.39189 10.7933 8.30731 10.8409 8.21585 10.8706C8.1244 10.9002 8.02794 10.9112 7.93216 10.903Z" fill="black"/>
</g>
</g>
</svg>
