<svg width="1440" height="1184" viewBox="0 0 1440 1184" fill="none" xmlns="http://www.w3.org/2000/svg">
<path d="M0.00976562 -319.422C0.00976562 -336.162 16.1414 -348.175 32.1331 -343.227C177.75 -298.174 321.045 -243.222 452.483 -165.781C452.588 -165.718 452.689 -165.647 452.783 -165.568C453.882 -164.646 453.829 -162.939 452.676 -162.085L439.01 -151.97C429.886 -145.216 430.773 -131.283 440.6 -125.598C556.982 -58.2741 664.429 23.3443 767.939 108.823C775.416 114.998 785.85 116.148 794.476 111.717C803.378 107.143 814.182 108.517 821.621 115.212C920.383 204.086 1014.65 297.847 1102.63 397.438C1103.12 397.997 1103.45 398.682 1103.57 399.417C1103.88 401.229 1102.91 403.015 1101.22 403.744L1092.63 407.46C1082.82 411.699 1079.88 424.197 1086.69 432.429C1149.92 508.857 1208.26 589.578 1258.46 675.211C1263.53 683.856 1274.07 687.672 1283.45 684.148C1293.42 680.405 1304.59 684.946 1309.04 694.617C1358.11 801.241 1399.95 911.54 1431.57 1024.75C1435.97 1040.52 1424.01 1056 1407.64 1056H1349.16C1338.97 1056 1329.8 1049.81 1325.94 1040.37C1281.48 931.888 1230.96 825.896 1171.43 724.943C1167.3 717.928 1158.79 714.815 1151.08 717.437C1143.8 719.914 1135.76 717.275 1131.32 710.996C1072.62 628.096 1007.92 549.466 937.411 476.416C929.558 468.28 931.884 454.801 942.068 449.887C952.113 445.041 954.543 431.827 946.783 423.817C861.023 335.299 766.813 255.667 668.09 181.996C660.024 175.977 649.125 175.448 640.478 180.599L637.875 182.15C629.239 187.294 618.37 186.755 610.226 180.863C505.611 105.19 393.959 39.2512 279.536 -20.6302C263.73 -28.9017 261.833 -50.8599 276.085 -61.5883L286.877 -69.712C287.859 -70.4509 288.319 -71.6948 288.054 -72.8945C287.837 -73.8747 287.165 -74.692 286.245 -75.0933L15.0172 -193.362C5.90254 -197.337 0.00976562 -206.335 0.00976562 -216.278V-319.422Z" fill="#F5F5F5" fill-opacity="0.5"/>
<path d="M0.00976562 104.175C0.00976562 86.4221 17.9973 74.3257 34.4394 81.022L146.019 126.465C155.47 130.314 157.296 142.906 149.327 149.281C141.399 155.622 143.153 168.149 152.481 172.155C281.295 227.466 404.706 294.402 524.184 367.498C531.988 372.272 541.774 372.443 549.719 367.906L562.16 360.802C570.551 356.01 580.958 356.475 588.848 362.053C684.284 429.525 775.673 503.055 862.221 581.427C870.282 588.727 867.969 601.901 857.933 606.092C848.025 610.229 845.607 623.168 853.332 630.626C930.81 705.424 1006.82 782.216 1073.02 867.371C1077.51 873.148 1085.24 875.355 1092.08 872.739C1099.16 870.027 1107.19 872.492 1111.46 878.765C1146.62 930.434 1179.24 986.232 1209.61 1041.3C1228.93 1076.3 1247.1 1112.04 1265 1147.86C1273.3 1164.47 1261.2 1184 1242.63 1184H1165.39C1157.43 1184 1149.94 1180.21 1145.24 1173.79L979.368 947.727C973.687 939.984 963.638 936.825 954.549 939.925C946.3 942.738 937.176 940.405 931.232 934.032C856.838 854.276 775.936 780.692 690.571 712.834C682.015 706.032 682.329 692.898 691.258 686.593C700.275 680.226 700.489 666.928 691.652 660.315C595.911 588.669 497.441 520.724 394.649 459.444C393.421 458.712 392.044 458.267 390.62 458.141C388.309 457.936 386.003 458.581 384.134 459.955L365.177 473.896C357.485 479.552 347.25 480.32 338.75 475.971C250.284 430.699 158.114 392.782 64.7697 358.564C54.8279 354.92 52.4288 341.919 60.4528 335.01C68.3485 328.211 66.1735 315.453 56.4711 311.655L15.8957 295.769C6.31421 292.018 0.00976562 282.779 0.00976562 272.489V104.175Z" fill="#F5F5F5" fill-opacity="0.5"/>
</svg>
