<svg width="767" height="397" viewBox="0 0 767 397" fill="none" xmlns="http://www.w3.org/2000/svg">
<g filter="url(#filter0_f_198_31)">
<rect x="99.6611" y="159.958" width="555.677" height="137.859" rx="5" transform="rotate(-6.17494 99.6611 159.958)" fill="#EAD800"/>
<path d="M167.126 263.582C160.424 264.307 155.084 262.954 151.108 259.522C147.217 256.08 144.895 250.881 144.142 243.924L138.965 196.076C138.213 189.119 139.369 183.544 142.434 179.35C145.584 175.146 150.511 172.682 157.213 171.957C163.915 171.232 169.212 172.59 173.103 176.031C177.079 179.464 179.444 184.658 180.197 191.615L181.215 201.032L167.981 202.464L166.865 192.156C166.269 186.641 163.637 184.137 158.971 184.641C154.305 185.146 152.271 188.156 152.867 193.67L158.251 243.428C158.838 248.858 161.465 251.32 166.131 250.815C170.797 250.31 172.836 247.343 172.249 241.914L170.776 228.297L184.01 226.865L185.373 239.464C186.126 246.42 184.927 252 181.777 256.204C178.712 260.398 173.828 262.857 167.126 263.582ZM216.599 258.23C209.727 258.973 204.256 257.591 200.186 254.083C196.116 250.575 193.695 245.258 192.924 238.132L187.857 191.301C187.086 184.175 188.314 178.463 191.539 174.165C194.765 169.868 199.814 167.348 206.686 166.604C213.558 165.861 219.029 167.243 223.099 170.751C227.17 174.259 229.59 179.576 230.361 186.702L235.428 233.533C236.199 240.659 234.972 246.371 231.746 250.669C228.52 254.966 223.471 257.486 216.599 258.23ZM215.222 245.504C220.058 244.981 222.159 241.792 221.526 235.938L216.267 187.326C215.633 181.472 212.899 178.807 208.063 179.33C203.227 179.853 201.126 183.042 201.759 188.896L207.019 237.508C207.652 243.362 210.387 246.027 215.222 245.504ZM237.542 164.553L255.104 162.653L274.489 214.501L274.744 214.474L268.975 161.153L281.446 159.803L291.084 248.884L276.704 250.439L252.87 187.228L252.616 187.256L259.651 252.284L247.18 253.634L237.542 164.553ZM291.851 158.678L328.882 154.671L330.259 167.397L307.226 169.889L309.911 194.704L327.981 192.749L329.358 205.475L311.287 207.43L315.487 246.243L301.488 247.758L291.851 158.678ZM335.595 153.945L373.772 149.814L375.149 162.54L350.97 165.156L353.518 188.699L372.733 186.62L374.11 199.345L354.894 201.424L357.855 228.785L382.033 226.169L383.41 238.895L345.233 243.025L335.595 153.945ZM381.825 148.943L402.568 146.699C409.78 145.919 415.223 147.046 418.899 150.082C422.566 153.033 424.775 157.986 425.528 164.943L426.12 170.415C427.121 179.663 424.7 185.847 418.858 188.968L418.885 189.223C422.389 189.873 424.989 191.695 426.686 194.687C428.468 197.67 429.644 201.792 430.213 207.052L431.906 222.704C432.181 225.249 432.491 227.319 432.835 228.912C433.17 230.421 433.76 231.902 434.604 233.356L420.351 234.898C419.686 233.511 419.199 232.19 418.892 230.936C418.585 229.682 418.252 227.4 417.894 224.091L416.132 207.802C415.691 203.73 414.705 200.962 413.173 199.497C411.726 198.022 409.391 197.46 406.167 197.808L401.331 198.332L405.462 236.509L391.463 238.023L381.825 148.943ZM405.045 185.055C407.844 184.752 409.845 183.806 411.046 182.217C412.332 180.619 412.792 178.123 412.425 174.729L411.681 167.857C411.332 164.634 410.486 162.365 409.142 161.051C407.883 159.728 406.024 159.2 403.563 159.466L397.201 160.154L399.954 185.606L405.045 185.055ZM433.151 143.39L471.328 139.26L472.705 151.985L448.526 154.601L451.073 178.144L470.289 176.065L471.666 188.791L452.45 190.87L455.41 218.23L479.589 215.614L480.966 228.34L442.789 232.47L433.151 143.39ZM479.381 138.388L496.943 136.488L516.328 188.336L516.583 188.308L510.814 134.988L523.285 133.638L532.923 222.718L518.543 224.274L494.709 161.063L494.455 161.091L501.49 226.119L489.019 227.469L479.381 138.388ZM563.19 220.731C556.487 221.456 551.148 220.103 547.172 216.671C543.28 213.229 540.958 208.03 540.206 201.073L535.029 153.225C534.276 146.268 535.433 140.693 538.498 136.499C541.648 132.295 546.574 129.831 553.276 129.106C559.979 128.381 565.276 129.739 569.167 133.18C573.143 136.613 575.508 141.807 576.26 148.764L577.279 158.181L564.044 159.613L562.929 149.305C562.333 143.79 559.701 141.286 555.035 141.79C550.369 142.295 548.334 145.305 548.931 150.819L554.314 200.577C554.902 206.007 557.528 208.469 562.195 207.964C566.861 207.459 568.9 204.492 568.313 199.063L566.839 185.446L580.074 184.014L581.437 196.613C582.19 203.569 580.991 209.149 577.841 213.353C574.776 217.547 569.892 220.006 563.19 220.731ZM582.405 127.242L620.582 123.112L621.959 135.837L597.78 138.453L600.327 161.996L619.543 159.917L620.92 172.643L601.704 174.722L604.664 202.082L628.843 199.466L630.22 212.192L592.043 216.322L582.405 127.242Z" fill="#F7E405"/>
</g>
<defs>
<filter id="filter0_f_198_31" x="-0.338867" y="0.186722" width="767.282" height="396.83" filterUnits="userSpaceOnUse" color-interpolation-filters="sRGB">
<feFlood flood-opacity="0" result="BackgroundImageFix"/>
<feBlend mode="normal" in="SourceGraphic" in2="BackgroundImageFix" result="shape"/>
<feGaussianBlur stdDeviation="50" result="effect1_foregroundBlur_198_31"/>
</filter>
</defs>
</svg>
