<svg width="1283" height="1117" viewBox="0 0 1283 1117" fill="none" xmlns="http://www.w3.org/2000/svg">
<path d="M0.00976562 0L167.111 68.0548L131.723 96.3625C272.626 155.218 407.029 228.205 536.831 308.266L575.901 285.955C682.393 360.346 783.928 442.292 879.417 530.121L836.948 547.854C923.019 630.495 1008.01 715.036 1080.55 810.151L1104.14 801.121C1142.11 855.724 1177.14 915.43 1209.61 974.299C1235.43 1021.08 1259.19 1069.17 1283.01 1117H1152.73L969.822 867.716L940.976 877.554C858.968 788.35 768.818 706.786 673.33 632.253L709.483 606.724C607.565 529.71 502.646 456.708 392.783 391.333L387.034 390.822L352.608 416.139C252.928 364.017 148.334 321.563 42.4932 283.474L77.8536 253.026L0.00976562 222.549V0Z" fill="#F5F5F5" fill-opacity="0.5"/>
</svg>
