<svg width="532" height="165" viewBox="0 0 532 165" fill="none" xmlns="http://www.w3.org/2000/svg">
<rect y="34.9221" width="524" height="130" rx="5" transform="rotate(-3.82132 0 34.9221)" fill="#F7E405"/>
<path d="M47.3489 142.285C40.6226 142.734 35.3434 141.163 31.5115 137.57C27.7647 133.972 25.6581 128.682 25.1918 121.7L21.9843 73.6791C21.5179 66.6973 22.9022 61.1741 26.1372 57.1095C29.4573 53.0392 34.4806 50.7794 41.2069 50.3301C47.9333 49.8808 53.1698 51.4553 56.9166 55.0536C60.7486 58.6462 62.8977 63.9334 63.3641 70.9152L63.9953 80.3661L50.7129 81.2533L50.022 70.9084C49.6523 65.374 47.126 62.7633 42.4431 63.0761C37.7602 63.3888 35.6036 66.3124 35.9733 71.8467L39.3087 121.783C39.6727 127.233 42.1961 129.801 46.879 129.488C51.5619 129.175 53.7214 126.294 53.3574 120.845L52.4446 107.18L65.727 106.292L66.5716 118.936C67.0379 125.918 65.611 131.444 62.2909 135.514C59.0559 139.579 54.0753 141.836 47.3489 142.285ZM97.0003 138.969C90.1037 139.429 84.694 137.824 80.7712 134.152C76.8484 130.48 74.6481 125.068 74.1704 117.916L71.0312 70.9162C70.5535 63.7642 72.0144 58.1076 75.414 53.9464C78.8135 49.7853 83.9616 47.4744 90.8583 47.0137C97.7549 46.5531 103.165 48.1588 107.087 51.8308C111.01 55.5029 113.21 60.9149 113.688 68.067L116.827 115.066C117.305 122.218 115.844 127.875 112.445 132.036C109.045 136.197 103.897 138.508 97.0003 138.969ZM96.1472 126.197C101 125.873 103.231 122.774 102.838 116.899L99.5797 68.1114C99.1873 62.2365 96.5645 59.4611 91.7113 59.7852C86.8581 60.1094 84.6278 63.2089 85.0202 69.0839L88.2788 117.871C88.6713 123.746 91.2941 126.521 96.1472 126.197ZM121.773 46.2317L139.398 45.0544L156.637 97.6544L156.893 97.6374L153.319 44.1246L165.835 43.2886L171.806 132.689L157.374 133.653L136.157 69.5168L135.901 69.5339L140.26 134.796L127.744 135.632L121.773 46.2317ZM176.276 42.5912L213.442 40.1088L214.295 52.8803L191.178 54.4243L192.842 79.3289L210.977 78.1175L211.83 90.8891L193.695 92.1004L196.297 131.054L182.248 131.992L176.276 42.5912ZM220.179 39.6588L258.493 37.0996L259.346 49.8711L235.08 51.492L236.659 75.1193L255.944 73.8312L256.797 86.6027L237.512 87.8909L239.346 115.35L263.612 113.729L264.465 126.5L226.15 129.06L220.179 39.6588ZM266.575 36.5598L287.393 35.1693C294.63 34.6859 300.023 36.0362 303.571 39.2201C307.113 42.3189 309.118 47.3592 309.584 54.341L309.951 59.8328C310.571 69.1134 307.898 75.1931 301.932 78.0717L301.949 78.3271C305.423 79.1214 307.947 81.0481 309.52 84.1075C311.177 87.1611 312.183 91.3274 312.535 96.6063L313.584 112.315C313.755 114.87 313.98 116.95 314.258 118.556C314.531 120.077 315.059 121.582 315.842 123.069L301.538 124.024C300.931 122.611 300.499 121.271 300.243 120.005C299.988 118.74 299.749 116.447 299.527 113.126L298.435 96.7783C298.162 92.6914 297.291 89.8846 295.82 88.3579C294.435 86.8255 292.125 86.1673 288.889 86.3834L284.036 86.7076L286.595 125.022L272.547 125.961L266.575 36.5598ZM288.292 73.5948C291.101 73.4071 293.139 72.5441 294.405 71.0057C295.756 69.4615 296.317 66.9866 296.09 63.5809L295.629 56.6842C295.413 53.4488 294.661 51.1471 293.372 49.7793C292.168 48.4058 290.332 47.8015 287.863 47.9664L281.477 48.393L283.183 73.936L288.292 73.5948ZM318.085 33.1192L356.4 30.56L357.253 43.3316L332.987 44.9524L334.565 68.5798L353.85 67.2916L354.703 80.0632L335.418 81.3513L337.253 108.81L361.518 107.189L362.371 119.961L324.057 122.52L318.085 33.1192ZM364.482 30.0202L382.107 28.843L399.347 81.443L399.602 81.4259L396.028 27.9132L408.544 27.0772L414.515 116.478L400.083 117.442L378.866 53.3054L378.61 53.3224L382.97 118.585L370.453 119.421L364.482 30.0202ZM444.838 115.735C438.112 116.185 432.833 114.613 429.001 111.02C425.254 107.422 423.147 102.132 422.681 95.1503L419.474 47.1293C419.007 40.1476 420.392 34.6244 423.627 30.5597C426.947 26.4894 431.97 24.2296 438.696 23.7803C445.423 23.3311 450.659 24.9056 454.406 28.5039C458.238 32.0965 460.387 37.3837 460.853 44.3654L461.485 53.8164L448.202 54.7036L447.511 44.3586C447.142 38.8243 444.615 36.2135 439.932 36.5263C435.25 36.8391 433.093 39.7626 433.463 45.297L436.798 95.2337C437.162 100.683 439.685 103.251 444.368 102.938C449.051 102.626 451.211 99.7445 450.847 94.2953L449.934 80.6298L463.216 79.7426L464.061 92.3864C464.527 99.3682 463.1 104.894 459.78 108.965C456.545 113.029 451.565 115.286 444.838 115.735ZM467.877 23.1141L506.191 20.5549L507.044 33.3265L482.778 34.9473L484.357 58.5747L503.642 57.2865L504.495 70.0581L485.21 71.3462L487.044 98.805L511.31 97.1842L512.163 109.956L473.848 112.515L467.877 23.1141Z" fill="#222649"/>
</svg>
