<svg width="70" height="22" viewBox="0 0 70 22" fill="none" xmlns="http://www.w3.org/2000/svg">
<path d="M5.21127 11.0709C5.21127 7.8596 7.7993 5.25156 10.9859 5.25156C13.5035 5.25156 15.6514 6.8838 16.4437 9.15474H21.8134C21.6725 8.33862 21.4437 7.54024 21.1092 6.75961C20.5634 5.44672 19.7711 4.25802 18.75 3.24674C17.7465 2.23546 16.5669 1.43708 15.2641 0.869345C13.9085 0.283868 12.4648 0 10.9859 0C9.50704 0 8.06338 0.301609 6.70775 0.869345C5.40493 1.41934 4.22535 2.21772 3.22183 3.24674C2.21831 4.25802 1.42606 5.44672 0.862676 6.75961C0.28169 8.12572 0 9.58055 0 11.0709C0 12.5612 0.299295 14.016 0.862676 15.3821C1.40845 16.695 2.2007 17.8837 3.22183 18.895C4.22535 19.9062 5.40493 20.7046 6.70775 21.2724C7.4824 21.5917 8.27465 21.8401 9.08451 21.982V16.5708C6.83099 15.7902 5.21127 13.6257 5.21127 11.0709Z" fill="#FF3D00"/>
<path d="M21.8309 11.0708L19.1373 13.7853V19.2852H13.6795L10.9858 21.9997V11.0708H21.8309Z" fill="#FF3D00"/>
<path d="M30.8977 15.31C29.6477 15.31 28.6266 14.9197 27.8344 14.1213C27.0421 13.3229 26.6548 12.3294 26.6548 11.1052C26.6548 9.93423 27.0597 8.94069 27.8696 8.12457C28.6794 7.30845 29.683 6.90039 30.8977 6.90039C31.602 6.90039 32.183 6.9891 32.6759 7.16652C33.1513 7.34393 33.6266 7.6278 34.0668 8.00038L32.9576 9.36649C32.6231 9.08263 32.2886 8.86972 31.9717 8.74553C31.6548 8.62134 31.2851 8.55037 30.8449 8.55037C30.1935 8.55037 29.6477 8.79876 29.2076 9.29553C28.7499 9.7923 28.5386 10.3955 28.5386 11.1052C28.5386 11.8503 28.7675 12.4713 29.2252 12.9503C29.683 13.4294 30.2639 13.6777 30.9858 13.6777C31.6548 13.6777 32.2006 13.5181 32.6583 13.1987V12.0455H30.8801V10.502H34.3837V14.0326C33.3449 14.8664 32.183 15.31 30.8977 15.31Z" fill="white"/>
<path d="M38.7853 15.3109C37.8522 15.3109 37.0776 15.0093 36.4614 14.406C35.8628 13.8028 35.5459 13.0222 35.5459 12.0641C35.5459 11.1593 35.8276 10.3964 36.4086 9.7577C36.9896 9.13673 37.7114 8.81738 38.5917 8.81738C39.56 8.81738 40.317 9.13673 40.8276 9.79318C41.3382 10.4496 41.6022 11.248 41.6022 12.2061C41.6022 12.2948 41.6022 12.4544 41.5846 12.6673H37.2889C37.3769 13.0577 37.5529 13.3593 37.7994 13.5722C38.0635 13.7851 38.398 13.8915 38.7853 13.8915C39.3311 13.8915 39.8241 13.6786 40.2818 13.2528L41.2853 14.1399C40.6867 14.9205 39.8593 15.3109 38.7853 15.3109ZM37.2889 11.5674H39.9297C39.8769 11.1593 39.736 10.8399 39.5072 10.6093C39.2783 10.3609 38.979 10.2545 38.6269 10.2545C38.2748 10.2545 37.9755 10.3787 37.7466 10.6093C37.5001 10.8399 37.3593 11.1593 37.2889 11.5674Z" fill="white"/>
<path d="M53.0456 15.3109C52.1125 15.3109 51.3378 15.0093 50.7216 14.406C50.1231 13.8028 49.8062 13.0222 49.8062 12.0641C49.8062 11.1593 50.0878 10.3964 50.6688 9.7577C51.2498 9.13673 51.9716 8.81738 52.8519 8.81738C53.8202 8.81738 54.5773 9.13673 55.0878 9.79318C55.5984 10.4496 55.8625 11.248 55.8625 12.2061C55.8625 12.2948 55.8625 12.4544 55.8449 12.6673H51.5491C51.6371 13.0577 51.8132 13.3593 52.0597 13.5722C52.3238 13.7851 52.6583 13.8915 53.0456 13.8915C53.5914 13.8915 54.0843 13.6786 54.5421 13.2528L55.5456 14.1399C54.947 14.9205 54.1019 15.3109 53.0456 15.3109ZM51.5315 11.5674H54.1724C54.1195 11.1593 53.9787 10.8399 53.7498 10.6093C53.5209 10.3609 53.2217 10.2545 52.8695 10.2545C52.5174 10.2545 52.2181 10.3787 51.9893 10.6093C51.7428 10.8399 51.6019 11.1593 51.5315 11.5674Z" fill="white"/>
<path d="M60.9507 10.698C60.9507 10.698 60.0176 10.6447 59.4718 11.2302C59.1373 11.585 58.9788 12.1883 58.9788 12.9157V15.1689H57.2183V12.3834C57.2183 9.7399 58.9436 8.79959 60.9331 8.94152V10.698H60.9507Z" fill="white"/>
<path d="M62.0244 8.24975V6.68848H63.873V8.24975H62.0244ZM62.0772 15.169V8.94168H63.8378V15.169H62.0772Z" fill="white"/>
<path d="M67.6409 15.2754C66.6726 15.2754 65.7747 14.956 64.9824 14.3351L65.7395 13.1819C66.4085 13.6786 67.0599 13.927 67.6937 13.927C68.1866 13.927 68.4331 13.7673 68.4331 13.448C68.4331 13.4125 68.4331 13.377 68.4155 13.3238C68.3979 13.2883 68.3803 13.2528 68.3451 13.2173C68.3099 13.1819 68.2747 13.1641 68.2395 13.1286C68.2043 13.0931 68.1514 13.0754 68.0986 13.0399C68.0458 13.0044 67.993 12.9867 67.9402 12.969C67.905 12.9512 67.8345 12.9335 67.7641 12.898C67.6937 12.8625 67.6233 12.8448 67.5705 12.827C67.5176 12.8093 67.4472 12.7915 67.3592 12.7561C67.2712 12.7206 67.2007 12.7028 67.1479 12.6851C66.8838 12.6141 66.6726 12.5254 66.4789 12.4544C66.3028 12.3657 66.1092 12.2593 65.9155 12.1173C65.7219 11.9754 65.5634 11.798 65.4578 11.5674C65.3521 11.3545 65.2993 11.0883 65.2993 10.7867C65.2993 10.1835 65.5106 9.68673 65.9507 9.34964C66.3733 8.9948 66.919 8.81738 67.5705 8.81738C68.3979 8.81738 69.1726 9.06577 69.8768 9.54479L69.2078 10.769C68.5564 10.3787 67.993 10.1835 67.5352 10.1835C67.1127 10.1835 66.8838 10.3432 66.8838 10.6448C66.8838 10.8577 67.2359 11.0706 67.9402 11.319C68.0282 11.3545 68.0986 11.3722 68.1338 11.3899C68.3451 11.4609 68.5212 11.5319 68.662 11.5851C68.8028 11.6383 68.9789 11.727 69.155 11.8335C69.331 11.9399 69.4895 12.0641 69.5951 12.1706C69.7007 12.2948 69.8064 12.4367 69.8768 12.6319C69.9472 12.8093 70 13.0222 70 13.2528C70 13.927 69.7888 14.4238 69.3486 14.7609C68.9085 15.1157 68.3451 15.2754 67.6409 15.2754Z" fill="white"/>
<path d="M48.3449 12.3836V15.169H46.5843V12.9158C46.5843 12.1884 46.4259 11.5852 46.0914 11.2304C45.6336 10.7513 44.9118 10.7691 44.6829 10.7691V15.169H42.9399V8.94168H44.6829C46.8308 8.92394 48.3449 9.77554 48.3449 12.3836Z" fill="white"/>
</svg>
