<svg width="1440" height="1184" viewBox="0 0 1440 1184" fill="none" xmlns="http://www.w3.org/2000/svg">
<path d="M0.509766 -319.423C0.510016 -335.829 16.3188 -347.596 31.9854 -342.749C177.583 -297.702 320.837 -242.764 452.229 -165.35C452.31 -165.301 452.388 -165.247 452.461 -165.186C453.312 -164.471 453.272 -163.149 452.379 -162.487L438.713 -152.372C429.294 -145.4 430.217 -131.027 440.35 -125.165C556.697 -57.8611 664.119 23.7377 767.62 109.209C775.251 115.51 785.9 116.685 794.704 112.162C803.422 107.683 814.002 109.028 821.286 115.583C920.037 204.447 1014.29 298.194 1102.25 397.77C1102.69 398.258 1102.97 398.857 1103.08 399.5C1103.35 401.085 1102.5 402.647 1101.02 403.285L1092.43 407.001C1082.31 411.374 1079.28 424.262 1086.3 432.748C1149.52 509.16 1207.85 589.859 1258.03 675.464C1263.22 684.316 1274.01 688.226 1283.62 684.616C1293.35 680.964 1304.25 685.395 1308.59 694.826C1357.65 801.429 1399.48 911.704 1431.08 1024.89C1435.4 1040.33 1423.69 1055.5 1407.64 1055.5H1349.16C1339.17 1055.5 1330.19 1049.43 1326.4 1040.19C1281.93 931.682 1231.4 825.667 1171.86 724.689C1167.61 717.468 1158.86 714.266 1150.92 716.964C1143.85 719.369 1136.04 716.807 1131.73 710.708C1073.02 627.787 1008.3 549.138 937.771 476.069C930.152 468.175 932.412 455.102 942.286 450.338C952.633 445.345 955.142 431.727 947.142 423.469C861.36 334.927 767.128 255.278 668.39 181.596C660.16 175.454 649.042 174.915 640.223 180.169L637.619 181.72C629.157 186.761 618.503 186.234 610.519 180.458C505.879 104.766 394.205 38.8158 279.768 -21.0732C264.284 -29.1763 262.43 -50.6834 276.386 -61.1885L287.178 -69.3125C288.316 -70.1691 288.849 -71.6111 288.542 -73.002C288.291 -74.1384 287.511 -75.0866 286.444 -75.5518L15.2168 -193.82C6.28453 -197.715 0.509826 -206.534 0.509766 -216.278V-319.423Z" fill="#F5F5F5" fill-opacity="0.5" stroke="#2C3055"/>
<path d="M0.509766 104.176C0.509766 86.7775 18.1377 74.923 34.251 81.4854L145.831 126.928C154.928 130.633 156.685 142.755 149.015 148.891C140.789 155.471 142.613 168.461 152.284 172.614C281.07 227.913 404.46 294.838 523.923 367.924C531.882 372.793 541.863 372.968 549.968 368.34L562.407 361.236C570.631 356.54 580.829 356.997 588.56 362.462C683.978 429.921 775.351 503.439 861.885 581.798C869.672 588.85 867.441 601.58 857.74 605.631C847.499 609.907 845.002 623.279 852.984 630.985C930.46 705.78 1006.45 782.553 1072.62 867.678C1077.25 873.627 1085.21 875.901 1092.25 873.206C1099.13 870.576 1106.91 872.968 1111.05 879.046C1146.2 930.697 1178.8 986.48 1209.17 1041.54V1041.54C1228.49 1076.54 1246.65 1112.27 1264.55 1148.08C1272.69 1164.36 1260.83 1183.5 1242.63 1183.5H1165.39C1157.59 1183.5 1150.25 1179.78 1145.64 1173.49L979.771 947.431C973.961 939.512 963.683 936.281 954.388 939.451C946.327 942.2 937.409 939.921 931.598 933.69C857.185 853.915 776.265 780.314 690.883 712.442C682.585 705.846 682.893 693.113 691.547 687.002C700.839 680.44 701.062 666.732 691.951 659.914C596.201 588.262 497.716 520.306 394.905 459.015C393.613 458.244 392.163 457.776 390.664 457.643C388.232 457.427 385.804 458.106 383.837 459.553L364.881 473.493C357.343 479.036 347.311 479.79 338.978 475.525C250.487 430.241 158.297 392.317 64.9414 358.095C55.3558 354.581 53.0465 342.047 60.7793 335.389C68.9604 328.344 66.7064 315.125 56.6533 311.189L16.0781 295.304C6.68831 291.628 0.509766 282.573 0.509766 272.489V104.176Z" fill="#F5F5F5" fill-opacity="0.5" stroke="#2C3055"/>
</svg>
