<svg width="122" height="6" viewBox="0 0 122 6" fill="none" xmlns="http://www.w3.org/2000/svg">
<path d="M5.66666 3.00978C5.66666 1.53702 4.47276 0.343109 3 0.343109C1.52724 0.343109 0.333328 1.53702 0.333328 3.00978C0.333328 4.48254 1.52724 5.67644 3 5.67644C4.47276 5.67644 5.66666 4.48254 5.66666 3.00978ZM122 3.00977L122 2.50977L119.521 2.50977L119.521 3.00977L119.521 3.50977L122 3.50977L122 3.00977ZM114.562 3.00977L114.562 2.50977L109.604 2.50977L109.604 3.00977L109.604 3.50977L114.563 3.50977L114.562 3.00977ZM104.646 3.00977L104.646 2.50977L99.6875 2.50977L99.6875 3.00977L99.6875 3.50977L104.646 3.50977L104.646 3.00977ZM94.7292 3.00977L94.7292 2.50977L89.7708 2.50977L89.7708 3.00977L89.7708 3.50977L94.7292 3.50977L94.7292 3.00977ZM84.8125 3.00977L84.8125 2.50977L79.8542 2.50977L79.8542 3.00977L79.8542 3.50977L84.8125 3.50977L84.8125 3.00977ZM74.8958 3.00977L74.8958 2.50977L69.9375 2.50977L69.9375 3.00977L69.9375 3.50977L74.8958 3.50977L74.8958 3.00977ZM64.9792 3.00977L64.9792 2.50977L60.0208 2.50977L60.0208 3.00977L60.0208 3.50977L64.9792 3.50977L64.9792 3.00977ZM55.0625 3.00977L55.0625 2.50977L50.1042 2.50977L50.1042 3.00977L50.1042 3.50977L55.0625 3.50977L55.0625 3.00977ZM45.1458 3.00977L45.1458 2.50977L40.1875 2.50977L40.1875 3.00977L40.1875 3.50977L45.1458 3.50977L45.1458 3.00977ZM35.2292 3.00977L35.2292 2.50977L30.2708 2.50977L30.2708 3.00977L30.2708 3.50977L35.2292 3.50977L35.2292 3.00977ZM25.3125 3.00977L25.3125 2.50977L20.3542 2.50977L20.3542 3.00977L20.3542 3.50977L25.3125 3.50977L25.3125 3.00977ZM15.3958 3.00977L15.3958 2.50977L10.4375 2.50978L10.4375 3.00978L10.4375 3.50978L15.3958 3.50977L15.3958 3.00977ZM5.47915 3.00978L5.47915 2.50978L3 2.50978L3 3.00978L3 3.50978L5.47915 3.50978L5.47915 3.00978Z" fill="#2C3055"/>
</svg>
