<svg width="153" height="6" viewBox="0 0 153 6" fill="none" xmlns="http://www.w3.org/2000/svg">
<path d="M147.333 2.99999C147.333 4.47275 148.527 5.66665 150 5.66665C151.473 5.66665 152.667 4.47275 152.667 2.99999C152.667 1.52723 151.473 0.33332 150 0.33332C148.527 0.33332 147.333 1.52723 147.333 2.99999ZM0 3L4.37114e-08 3.5L2.5 3.5L2.5 3L2.5 2.5L-4.37114e-08 2.5L0 3ZM7.5 3L7.5 3.5L12.5 3.5L12.5 3L12.5 2.5L7.5 2.5L7.5 3ZM17.5 3L17.5 3.5L22.5 3.5L22.5 3L22.5 2.5L17.5 2.5L17.5 3ZM27.5 3L27.5 3.5L32.5 3.5L32.5 3L32.5 2.5L27.5 2.5L27.5 3ZM37.5 3L37.5 3.5L42.5 3.5L42.5 3L42.5 2.5L37.5 2.5L37.5 3ZM47.5 3L47.5 3.5L52.5 3.5L52.5 3L52.5 2.5L47.5 2.5L47.5 3ZM57.5 2.99999L57.5 3.49999L62.5 3.49999L62.5 2.99999L62.5 2.49999L57.5 2.49999L57.5 2.99999ZM67.5 2.99999L67.5 3.49999L72.5 3.49999L72.5 2.99999L72.5 2.49999L67.5 2.49999L67.5 2.99999ZM77.5 2.99999L77.5 3.49999L82.5 3.49999L82.5 2.99999L82.5 2.49999L77.5 2.49999L77.5 2.99999ZM87.5 2.99999L87.5 3.49999L92.5 3.49999L92.5 2.99999L92.5 2.49999L87.5 2.49999L87.5 2.99999ZM97.5 2.99999L97.5 3.49999L102.5 3.49999L102.5 2.99999L102.5 2.49999L97.5 2.49999L97.5 2.99999ZM107.5 2.99999L107.5 3.49999L112.5 3.49999L112.5 2.99999L112.5 2.49999L107.5 2.49999L107.5 2.99999ZM117.5 2.99999L117.5 3.49999L122.5 3.49999L122.5 2.99999L122.5 2.49999L117.5 2.49999L117.5 2.99999ZM127.5 2.99999L127.5 3.49999L132.5 3.49999L132.5 2.99999L132.5 2.49999L127.5 2.49999L127.5 2.99999ZM137.5 2.99999L137.5 3.49999L142.5 3.49999L142.5 2.99999L142.5 2.49999L137.5 2.49999L137.5 2.99999ZM147.5 2.99999L147.5 3.49999L150 3.49999L150 2.99999L150 2.49999L147.5 2.49999L147.5 2.99999Z" fill="#2C3055"/>
</svg>
