<svg width="122" height="6" viewBox="0 0 122 6" fill="none" xmlns="http://www.w3.org/2000/svg">
<path d="M116.333 3.00001C116.333 4.47277 117.527 5.66668 119 5.66668C120.473 5.66668 121.667 4.47277 121.667 3.00001C121.667 1.52725 120.473 0.333344 119 0.333344C117.527 0.333344 116.333 1.52725 116.333 3.00001ZM0 3L-4.37114e-08 3.5L2.47917 3.5L2.47917 3L2.47917 2.5L4.37114e-08 2.5L0 3ZM7.4375 3L7.4375 3.5L12.3958 3.5L12.3958 3L12.3958 2.5L7.4375 2.5L7.4375 3ZM17.3542 3L17.3542 3.5L22.3125 3.5L22.3125 3L22.3125 2.5L17.3542 2.5L17.3542 3ZM27.2708 3L27.2708 3.5L32.2292 3.5L32.2292 3L32.2292 2.5L27.2708 2.5L27.2708 3ZM37.1875 3L37.1875 3.5L42.1458 3.5L42.1458 3L42.1458 2.5L37.1875 2.5L37.1875 3ZM47.1042 3L47.1042 3.5L52.0625 3.5L52.0625 3L52.0625 2.5L47.1042 2.5L47.1042 3ZM57.0208 3L57.0208 3.5L61.9792 3.50001L61.9792 3.00001L61.9792 2.50001L57.0208 2.5L57.0208 3ZM66.9375 3.00001L66.9375 3.50001L71.8958 3.50001L71.8958 3.00001L71.8958 2.50001L66.9375 2.50001L66.9375 3.00001ZM76.8542 3.00001L76.8542 3.50001L81.8125 3.50001L81.8125 3.00001L81.8125 2.50001L76.8542 2.50001L76.8542 3.00001ZM86.7708 3.00001L86.7708 3.50001L91.7292 3.50001L91.7292 3.00001L91.7292 2.50001L86.7708 2.50001L86.7708 3.00001ZM96.6875 3.00001L96.6875 3.50001L101.646 3.50001L101.646 3.00001L101.646 2.50001L96.6875 2.50001L96.6875 3.00001ZM106.604 3.00001L106.604 3.50001L111.563 3.50001L111.563 3.00001L111.563 2.50001L106.604 2.50001L106.604 3.00001ZM116.521 3.00001L116.521 3.50001L119 3.50001L119 3.00001L119 2.50001L116.521 2.50001L116.521 3.00001Z" fill="#2C3055"/>
</svg>
