<svg width="12" height="22" viewBox="0 0 12 22" fill="none" xmlns="http://www.w3.org/2000/svg">
<path d="M3.9633 21.4502C4.23422 21.5689 4.54922 21.4698 4.70745 21.2135L11.9074 9.48299C12.024 9.29313 12.031 9.05339 11.9255 8.85754C11.8201 8.66108 11.6185 8.53909 11.3999 8.53909H6.59471L8.38181 1.26665C8.45389 0.972858 8.30797 0.669425 8.0367 0.549864C7.76718 0.430919 7.45018 0.530628 7.29254 0.786565L0.092627 12.517C-0.0239717 12.7069 -0.0310117 12.9466 0.0744671 13.1425C0.179946 13.339 0.381504 13.4609 0.600061 13.4609H5.40529L3.61819 20.7334C3.54611 21.0272 3.69199 21.3306 3.9633 21.4502Z" fill="#F7E405"/>
</svg>
