<svg width="25" height="44" viewBox="0 0 25 44" fill="none" xmlns="http://www.w3.org/2000/svg">
<path d="M8.25688 43.8956C8.82129 44.1444 9.47753 43.9367 9.8072 43.3996L24.807 18.8215C25.0499 18.4237 25.0646 17.9214 24.8449 17.511C24.6251 17.0994 24.2052 16.8438 23.7499 16.8438H13.739L17.4621 1.60632C17.6123 0.990751 17.3083 0.354985 16.7431 0.104477C16.1816 -0.144741 15.5212 0.0641727 15.1928 0.600423L0.192973 25.1786C-0.049941 25.5764 -0.0646077 26.0787 0.15514 26.489C0.374887 26.9007 0.794799 27.1562 1.25013 27.1562H11.261L7.53789 42.3937C7.38772 43.0094 7.69164 43.6451 8.25688 43.8956Z" fill="#FF29AE"/>
</svg>
